<mxfile host="app.diagrams.net" modified="2023-05-30T22:24:54.044Z" agent="Mozilla/5.0 (Windows NT 10.0; Win64; x64) AppleWebKit/537.36 (KHTML, like Gecko) Chrome/113.0.0.0 Safari/537.36" etag="lLr_zvW387oafbLoolta" version="21.3.5" type="device">
  <diagram name="Page-1" id="ItMayTdStuMKdumeluar">
    <mxGraphModel dx="2561" dy="914" grid="1" gridSize="10" guides="1" tooltips="1" connect="1" arrows="1" fold="1" page="1" pageScale="1" pageWidth="827" pageHeight="1169" math="0" shadow="0">
      <root>
        <mxCell id="0" />
        <mxCell id="1" parent="0" />
        <mxCell id="jwccmyAAvtYH5btv979k-6" style="edgeStyle=orthogonalEdgeStyle;rounded=0;orthogonalLoop=1;jettySize=auto;html=1;exitX=0;exitY=0.5;exitDx=0;exitDy=0;entryX=0.5;entryY=0;entryDx=0;entryDy=0;endArrow=none;endFill=0;" edge="1" parent="1" source="jwccmyAAvtYH5btv979k-1" target="jwccmyAAvtYH5btv979k-2">
          <mxGeometry relative="1" as="geometry" />
        </mxCell>
        <mxCell id="jwccmyAAvtYH5btv979k-14" style="edgeStyle=orthogonalEdgeStyle;rounded=0;orthogonalLoop=1;jettySize=auto;html=1;exitX=1;exitY=0.5;exitDx=0;exitDy=0;entryX=0.5;entryY=0;entryDx=0;entryDy=0;endArrow=none;endFill=0;" edge="1" parent="1" source="jwccmyAAvtYH5btv979k-1" target="jwccmyAAvtYH5btv979k-3">
          <mxGeometry relative="1" as="geometry" />
        </mxCell>
        <mxCell id="jwccmyAAvtYH5btv979k-1" value="Sistēma" style="rounded=0;whiteSpace=wrap;html=1;fillColor=#fff2cc;strokeColor=#d6b656;" vertex="1" parent="1">
          <mxGeometry x="380" y="110" width="95" height="40" as="geometry" />
        </mxCell>
        <mxCell id="jwccmyAAvtYH5btv979k-343" style="edgeStyle=orthogonalEdgeStyle;rounded=0;orthogonalLoop=1;jettySize=auto;html=1;exitX=0.5;exitY=1;exitDx=0;exitDy=0;entryX=0.5;entryY=0;entryDx=0;entryDy=0;endArrow=none;endFill=0;" edge="1" parent="1" source="jwccmyAAvtYH5btv979k-2" target="jwccmyAAvtYH5btv979k-342">
          <mxGeometry relative="1" as="geometry" />
        </mxCell>
        <mxCell id="jwccmyAAvtYH5btv979k-344" style="edgeStyle=orthogonalEdgeStyle;rounded=0;orthogonalLoop=1;jettySize=auto;html=1;exitX=0.5;exitY=1;exitDx=0;exitDy=0;entryX=0.5;entryY=0;entryDx=0;entryDy=0;endArrow=none;endFill=0;" edge="1" parent="1" source="jwccmyAAvtYH5btv979k-2" target="jwccmyAAvtYH5btv979k-324">
          <mxGeometry relative="1" as="geometry" />
        </mxCell>
        <mxCell id="jwccmyAAvtYH5btv979k-2" value="Viesu sistēma" style="rounded=0;whiteSpace=wrap;html=1;fillColor=#d5e8d4;strokeColor=#82b366;" vertex="1" parent="1">
          <mxGeometry x="-140" y="170" width="95" height="40" as="geometry" />
        </mxCell>
        <mxCell id="jwccmyAAvtYH5btv979k-246" style="edgeStyle=orthogonalEdgeStyle;rounded=0;orthogonalLoop=1;jettySize=auto;html=1;exitX=0.5;exitY=1;exitDx=0;exitDy=0;endArrow=none;endFill=0;" edge="1" parent="1" source="jwccmyAAvtYH5btv979k-3" target="jwccmyAAvtYH5btv979k-244">
          <mxGeometry relative="1" as="geometry" />
        </mxCell>
        <mxCell id="jwccmyAAvtYH5btv979k-261" style="edgeStyle=orthogonalEdgeStyle;rounded=0;orthogonalLoop=1;jettySize=auto;html=1;exitX=0.5;exitY=1;exitDx=0;exitDy=0;entryX=0.5;entryY=0;entryDx=0;entryDy=0;endArrow=none;endFill=0;" edge="1" parent="1" source="jwccmyAAvtYH5btv979k-3" target="jwccmyAAvtYH5btv979k-175">
          <mxGeometry relative="1" as="geometry" />
        </mxCell>
        <mxCell id="jwccmyAAvtYH5btv979k-279" style="edgeStyle=orthogonalEdgeStyle;rounded=0;orthogonalLoop=1;jettySize=auto;html=1;exitX=1;exitY=0.5;exitDx=0;exitDy=0;entryX=0.5;entryY=0;entryDx=0;entryDy=0;endArrow=none;endFill=0;" edge="1" parent="1" source="jwccmyAAvtYH5btv979k-3" target="jwccmyAAvtYH5btv979k-200">
          <mxGeometry relative="1" as="geometry">
            <Array as="points">
              <mxPoint x="1490" y="190" />
              <mxPoint x="1490" y="500" />
              <mxPoint x="930" y="500" />
              <mxPoint x="930" y="520" />
            </Array>
          </mxGeometry>
        </mxCell>
        <mxCell id="jwccmyAAvtYH5btv979k-3" value="Lietotāja &lt;br&gt;sistēma" style="rounded=0;whiteSpace=wrap;html=1;fillColor=#d5e8d4;strokeColor=#82b366;" vertex="1" parent="1">
          <mxGeometry x="884" y="170" width="95" height="40" as="geometry" />
        </mxCell>
        <mxCell id="jwccmyAAvtYH5btv979k-415" style="edgeStyle=orthogonalEdgeStyle;rounded=0;orthogonalLoop=1;jettySize=auto;html=1;exitX=0.5;exitY=1;exitDx=0;exitDy=0;entryX=0.5;entryY=0;entryDx=0;entryDy=0;endArrow=none;endFill=0;" edge="1" parent="1" source="jwccmyAAvtYH5btv979k-4" target="jwccmyAAvtYH5btv979k-414">
          <mxGeometry relative="1" as="geometry" />
        </mxCell>
        <mxCell id="jwccmyAAvtYH5btv979k-432" style="edgeStyle=orthogonalEdgeStyle;rounded=0;orthogonalLoop=1;jettySize=auto;html=1;exitX=0.5;exitY=1;exitDx=0;exitDy=0;entryX=0.5;entryY=0;entryDx=0;entryDy=0;endArrow=none;endFill=0;" edge="1" parent="1" source="jwccmyAAvtYH5btv979k-4" target="jwccmyAAvtYH5btv979k-413">
          <mxGeometry relative="1" as="geometry" />
        </mxCell>
        <mxCell id="jwccmyAAvtYH5btv979k-442" style="edgeStyle=orthogonalEdgeStyle;rounded=0;orthogonalLoop=1;jettySize=auto;html=1;exitX=0.5;exitY=0;exitDx=0;exitDy=0;entryX=0.5;entryY=1;entryDx=0;entryDy=0;endArrow=none;endFill=0;" edge="1" parent="1" source="jwccmyAAvtYH5btv979k-4" target="jwccmyAAvtYH5btv979k-1">
          <mxGeometry relative="1" as="geometry">
            <Array as="points">
              <mxPoint x="248" y="510" />
              <mxPoint x="500" y="510" />
              <mxPoint x="500" y="280" />
              <mxPoint x="428" y="280" />
            </Array>
          </mxGeometry>
        </mxCell>
        <mxCell id="jwccmyAAvtYH5btv979k-4" value="Administratora sistēma" style="rounded=0;whiteSpace=wrap;html=1;fillColor=#d5e8d4;strokeColor=#82b366;" vertex="1" parent="1">
          <mxGeometry x="200" y="540" width="95" height="40" as="geometry" />
        </mxCell>
        <mxCell id="jwccmyAAvtYH5btv979k-253" style="edgeStyle=orthogonalEdgeStyle;rounded=0;orthogonalLoop=1;jettySize=auto;html=1;exitX=0.25;exitY=1;exitDx=0;exitDy=0;entryX=0;entryY=0.5;entryDx=0;entryDy=0;endArrow=none;endFill=0;" edge="1" parent="1" source="jwccmyAAvtYH5btv979k-61" target="jwccmyAAvtYH5btv979k-67">
          <mxGeometry relative="1" as="geometry" />
        </mxCell>
        <mxCell id="jwccmyAAvtYH5btv979k-254" style="edgeStyle=orthogonalEdgeStyle;rounded=0;orthogonalLoop=1;jettySize=auto;html=1;exitX=0.25;exitY=1;exitDx=0;exitDy=0;entryX=0;entryY=0.5;entryDx=0;entryDy=0;endArrow=none;endFill=0;" edge="1" parent="1" source="jwccmyAAvtYH5btv979k-61" target="jwccmyAAvtYH5btv979k-68">
          <mxGeometry relative="1" as="geometry" />
        </mxCell>
        <mxCell id="jwccmyAAvtYH5btv979k-255" style="edgeStyle=orthogonalEdgeStyle;rounded=0;orthogonalLoop=1;jettySize=auto;html=1;exitX=0.25;exitY=1;exitDx=0;exitDy=0;entryX=0;entryY=0.5;entryDx=0;entryDy=0;endArrow=none;endFill=0;" edge="1" parent="1" source="jwccmyAAvtYH5btv979k-61" target="jwccmyAAvtYH5btv979k-69">
          <mxGeometry relative="1" as="geometry" />
        </mxCell>
        <mxCell id="jwccmyAAvtYH5btv979k-256" style="edgeStyle=orthogonalEdgeStyle;rounded=0;orthogonalLoop=1;jettySize=auto;html=1;exitX=0.25;exitY=1;exitDx=0;exitDy=0;entryX=0;entryY=0.5;entryDx=0;entryDy=0;endArrow=none;endFill=0;" edge="1" parent="1" source="jwccmyAAvtYH5btv979k-61" target="jwccmyAAvtYH5btv979k-70">
          <mxGeometry relative="1" as="geometry" />
        </mxCell>
        <mxCell id="jwccmyAAvtYH5btv979k-61" value="Ziņas" style="rounded=0;whiteSpace=wrap;html=1;fillColor=#f8cecc;strokeColor=#b85450;" vertex="1" parent="1">
          <mxGeometry x="559.5" y="350" width="95" height="40" as="geometry" />
        </mxCell>
        <mxCell id="jwccmyAAvtYH5btv979k-62" style="edgeStyle=orthogonalEdgeStyle;rounded=0;orthogonalLoop=1;jettySize=auto;html=1;exitX=0.25;exitY=1;exitDx=0;exitDy=0;entryX=0;entryY=0.5;entryDx=0;entryDy=0;endArrow=none;endFill=0;" edge="1" parent="1" source="jwccmyAAvtYH5btv979k-66" target="jwccmyAAvtYH5btv979k-71">
          <mxGeometry relative="1" as="geometry" />
        </mxCell>
        <mxCell id="jwccmyAAvtYH5btv979k-63" style="edgeStyle=orthogonalEdgeStyle;rounded=0;orthogonalLoop=1;jettySize=auto;html=1;exitX=0.25;exitY=1;exitDx=0;exitDy=0;entryX=0;entryY=0.5;entryDx=0;entryDy=0;endArrow=none;endFill=0;" edge="1" parent="1" source="jwccmyAAvtYH5btv979k-66" target="jwccmyAAvtYH5btv979k-72">
          <mxGeometry relative="1" as="geometry" />
        </mxCell>
        <mxCell id="jwccmyAAvtYH5btv979k-64" style="edgeStyle=orthogonalEdgeStyle;rounded=0;orthogonalLoop=1;jettySize=auto;html=1;exitX=0.25;exitY=1;exitDx=0;exitDy=0;entryX=0;entryY=0.5;entryDx=0;entryDy=0;endArrow=none;endFill=0;" edge="1" parent="1" source="jwccmyAAvtYH5btv979k-66" target="jwccmyAAvtYH5btv979k-73">
          <mxGeometry relative="1" as="geometry" />
        </mxCell>
        <mxCell id="jwccmyAAvtYH5btv979k-65" style="edgeStyle=orthogonalEdgeStyle;rounded=0;orthogonalLoop=1;jettySize=auto;html=1;exitX=0.25;exitY=1;exitDx=0;exitDy=0;entryX=0;entryY=0.5;entryDx=0;entryDy=0;endArrow=none;endFill=0;" edge="1" parent="1" source="jwccmyAAvtYH5btv979k-66" target="jwccmyAAvtYH5btv979k-74">
          <mxGeometry relative="1" as="geometry" />
        </mxCell>
        <mxCell id="jwccmyAAvtYH5btv979k-66" value="Komentāri" style="rounded=0;whiteSpace=wrap;html=1;fillColor=#f8cecc;strokeColor=#b85450;" vertex="1" parent="1">
          <mxGeometry x="708" y="350" width="95" height="40" as="geometry" />
        </mxCell>
        <mxCell id="jwccmyAAvtYH5btv979k-67" value="lasīt" style="rounded=0;whiteSpace=wrap;html=1;fillColor=#dae8fc;strokeColor=#6c8ebf;" vertex="1" parent="1">
          <mxGeometry x="610" y="410" width="80" height="40" as="geometry" />
        </mxCell>
        <mxCell id="jwccmyAAvtYH5btv979k-68" value="izveidot" style="rounded=0;whiteSpace=wrap;html=1;fillColor=#dae8fc;strokeColor=#6c8ebf;" vertex="1" parent="1">
          <mxGeometry x="610" y="460" width="80" height="40" as="geometry" />
        </mxCell>
        <mxCell id="jwccmyAAvtYH5btv979k-69" value="dzēst" style="rounded=0;whiteSpace=wrap;html=1;fillColor=#dae8fc;strokeColor=#6c8ebf;" vertex="1" parent="1">
          <mxGeometry x="610" y="510" width="80" height="40" as="geometry" />
        </mxCell>
        <mxCell id="jwccmyAAvtYH5btv979k-70" value="atjaunināt" style="rounded=0;whiteSpace=wrap;html=1;fillColor=#dae8fc;strokeColor=#6c8ebf;" vertex="1" parent="1">
          <mxGeometry x="610" y="560" width="80" height="40" as="geometry" />
        </mxCell>
        <mxCell id="jwccmyAAvtYH5btv979k-71" value="lasīt" style="rounded=0;whiteSpace=wrap;html=1;fillColor=#dae8fc;strokeColor=#6c8ebf;" vertex="1" parent="1">
          <mxGeometry x="770" y="410" width="80" height="40" as="geometry" />
        </mxCell>
        <mxCell id="jwccmyAAvtYH5btv979k-72" value="izveidot" style="rounded=0;whiteSpace=wrap;html=1;fillColor=#dae8fc;strokeColor=#6c8ebf;" vertex="1" parent="1">
          <mxGeometry x="770" y="460" width="80" height="40" as="geometry" />
        </mxCell>
        <mxCell id="jwccmyAAvtYH5btv979k-73" value="dzēst" style="rounded=0;whiteSpace=wrap;html=1;fillColor=#dae8fc;strokeColor=#6c8ebf;" vertex="1" parent="1">
          <mxGeometry x="770" y="510" width="80" height="40" as="geometry" />
        </mxCell>
        <mxCell id="jwccmyAAvtYH5btv979k-74" value="atjaunināt" style="rounded=0;whiteSpace=wrap;html=1;fillColor=#dae8fc;strokeColor=#6c8ebf;" vertex="1" parent="1">
          <mxGeometry x="770" y="560" width="80" height="40" as="geometry" />
        </mxCell>
        <mxCell id="jwccmyAAvtYH5btv979k-268" style="edgeStyle=orthogonalEdgeStyle;rounded=0;orthogonalLoop=1;jettySize=auto;html=1;exitX=0.5;exitY=1;exitDx=0;exitDy=0;entryX=0.5;entryY=0;entryDx=0;entryDy=0;endArrow=none;endFill=0;" edge="1" parent="1" source="jwccmyAAvtYH5btv979k-175" target="jwccmyAAvtYH5btv979k-190">
          <mxGeometry relative="1" as="geometry" />
        </mxCell>
        <mxCell id="jwccmyAAvtYH5btv979k-269" style="edgeStyle=orthogonalEdgeStyle;rounded=0;orthogonalLoop=1;jettySize=auto;html=1;exitX=0.5;exitY=1;exitDx=0;exitDy=0;entryX=0.5;entryY=0;entryDx=0;entryDy=0;endArrow=none;endFill=0;" edge="1" parent="1" source="jwccmyAAvtYH5btv979k-175" target="jwccmyAAvtYH5btv979k-188">
          <mxGeometry relative="1" as="geometry" />
        </mxCell>
        <mxCell id="jwccmyAAvtYH5btv979k-270" style="edgeStyle=orthogonalEdgeStyle;rounded=0;orthogonalLoop=1;jettySize=auto;html=1;exitX=0.5;exitY=1;exitDx=0;exitDy=0;endArrow=none;endFill=0;" edge="1" parent="1" source="jwccmyAAvtYH5btv979k-175" target="jwccmyAAvtYH5btv979k-182">
          <mxGeometry relative="1" as="geometry" />
        </mxCell>
        <mxCell id="jwccmyAAvtYH5btv979k-271" style="edgeStyle=orthogonalEdgeStyle;rounded=0;orthogonalLoop=1;jettySize=auto;html=1;exitX=0.5;exitY=1;exitDx=0;exitDy=0;entryX=0.5;entryY=0;entryDx=0;entryDy=0;endArrow=none;endFill=0;" edge="1" parent="1" source="jwccmyAAvtYH5btv979k-175" target="jwccmyAAvtYH5btv979k-178">
          <mxGeometry relative="1" as="geometry" />
        </mxCell>
        <mxCell id="jwccmyAAvtYH5btv979k-272" style="edgeStyle=orthogonalEdgeStyle;rounded=0;orthogonalLoop=1;jettySize=auto;html=1;exitX=0.5;exitY=1;exitDx=0;exitDy=0;endArrow=none;endFill=0;" edge="1" parent="1" source="jwccmyAAvtYH5btv979k-175" target="jwccmyAAvtYH5btv979k-180">
          <mxGeometry relative="1" as="geometry">
            <Array as="points">
              <mxPoint x="1147" y="320" />
              <mxPoint x="1147" y="320" />
            </Array>
          </mxGeometry>
        </mxCell>
        <mxCell id="jwccmyAAvtYH5btv979k-175" value="Karte" style="rounded=0;whiteSpace=wrap;html=1;fillColor=#f5f5f5;fontColor=#333333;strokeColor=#666666;" vertex="1" parent="1">
          <mxGeometry x="1099" y="250" width="95" height="40" as="geometry" />
        </mxCell>
        <mxCell id="jwccmyAAvtYH5btv979k-264" style="edgeStyle=orthogonalEdgeStyle;rounded=0;orthogonalLoop=1;jettySize=auto;html=1;exitX=0.25;exitY=1;exitDx=0;exitDy=0;entryX=0;entryY=0.5;entryDx=0;entryDy=0;endArrow=none;endFill=0;" edge="1" parent="1" source="jwccmyAAvtYH5btv979k-178" target="jwccmyAAvtYH5btv979k-184">
          <mxGeometry relative="1" as="geometry" />
        </mxCell>
        <mxCell id="jwccmyAAvtYH5btv979k-178" value="Saraksts" style="rounded=0;whiteSpace=wrap;html=1;fillColor=#f8cecc;strokeColor=#b85450;" vertex="1" parent="1">
          <mxGeometry x="980" y="350" width="95" height="40" as="geometry" />
        </mxCell>
        <mxCell id="jwccmyAAvtYH5btv979k-265" style="edgeStyle=orthogonalEdgeStyle;rounded=0;orthogonalLoop=1;jettySize=auto;html=1;exitX=0.25;exitY=1;exitDx=0;exitDy=0;entryX=0;entryY=0.5;entryDx=0;entryDy=0;endArrow=none;endFill=0;" edge="1" parent="1" source="jwccmyAAvtYH5btv979k-180" target="jwccmyAAvtYH5btv979k-185">
          <mxGeometry relative="1" as="geometry" />
        </mxCell>
        <mxCell id="jwccmyAAvtYH5btv979k-180" value="Transports" style="rounded=0;whiteSpace=wrap;html=1;fillColor=#f8cecc;strokeColor=#b85450;" vertex="1" parent="1">
          <mxGeometry x="1100" y="350" width="95" height="40" as="geometry" />
        </mxCell>
        <mxCell id="jwccmyAAvtYH5btv979k-266" style="edgeStyle=orthogonalEdgeStyle;rounded=0;orthogonalLoop=1;jettySize=auto;html=1;exitX=0.25;exitY=1;exitDx=0;exitDy=0;entryX=0;entryY=0.5;entryDx=0;entryDy=0;endArrow=none;endFill=0;" edge="1" parent="1" source="jwccmyAAvtYH5btv979k-182" target="jwccmyAAvtYH5btv979k-186">
          <mxGeometry relative="1" as="geometry" />
        </mxCell>
        <mxCell id="jwccmyAAvtYH5btv979k-182" value="ceļojuma informācija" style="rounded=0;whiteSpace=wrap;html=1;fillColor=#f8cecc;strokeColor=#b85450;" vertex="1" parent="1">
          <mxGeometry x="1221" y="350" width="95" height="40" as="geometry" />
        </mxCell>
        <mxCell id="jwccmyAAvtYH5btv979k-183" value="lasīt" style="rounded=0;whiteSpace=wrap;html=1;fillColor=#dae8fc;strokeColor=#6c8ebf;" vertex="1" parent="1">
          <mxGeometry x="910" y="430" width="80" height="40" as="geometry" />
        </mxCell>
        <mxCell id="jwccmyAAvtYH5btv979k-184" value="lasīt" style="rounded=0;whiteSpace=wrap;html=1;fillColor=#dae8fc;strokeColor=#6c8ebf;" vertex="1" parent="1">
          <mxGeometry x="1030" y="430" width="80" height="40" as="geometry" />
        </mxCell>
        <mxCell id="jwccmyAAvtYH5btv979k-185" value="lasīt" style="rounded=0;whiteSpace=wrap;html=1;fillColor=#dae8fc;strokeColor=#6c8ebf;" vertex="1" parent="1">
          <mxGeometry x="1151" y="430" width="80" height="40" as="geometry" />
        </mxCell>
        <mxCell id="jwccmyAAvtYH5btv979k-186" value="lasīt" style="rounded=0;whiteSpace=wrap;html=1;fillColor=#dae8fc;strokeColor=#6c8ebf;" vertex="1" parent="1">
          <mxGeometry x="1266" y="430" width="80" height="40" as="geometry" />
        </mxCell>
        <mxCell id="jwccmyAAvtYH5btv979k-267" style="edgeStyle=orthogonalEdgeStyle;rounded=0;orthogonalLoop=1;jettySize=auto;html=1;exitX=0.25;exitY=1;exitDx=0;exitDy=0;entryX=0;entryY=0.5;entryDx=0;entryDy=0;endArrow=none;endFill=0;" edge="1" parent="1" source="jwccmyAAvtYH5btv979k-188" target="jwccmyAAvtYH5btv979k-189">
          <mxGeometry relative="1" as="geometry" />
        </mxCell>
        <mxCell id="jwccmyAAvtYH5btv979k-188" value="Kalendārs" style="rounded=0;whiteSpace=wrap;html=1;fillColor=#f8cecc;strokeColor=#b85450;" vertex="1" parent="1">
          <mxGeometry x="1338" y="350" width="95" height="40" as="geometry" />
        </mxCell>
        <mxCell id="jwccmyAAvtYH5btv979k-189" value="lasīt" style="rounded=0;whiteSpace=wrap;html=1;fillColor=#dae8fc;strokeColor=#6c8ebf;" vertex="1" parent="1">
          <mxGeometry x="1390" y="430" width="80" height="40" as="geometry" />
        </mxCell>
        <mxCell id="jwccmyAAvtYH5btv979k-263" style="edgeStyle=orthogonalEdgeStyle;rounded=0;orthogonalLoop=1;jettySize=auto;html=1;exitX=0.25;exitY=1;exitDx=0;exitDy=0;entryX=0;entryY=0.5;entryDx=0;entryDy=0;endArrow=none;endFill=0;" edge="1" parent="1" source="jwccmyAAvtYH5btv979k-190" target="jwccmyAAvtYH5btv979k-183">
          <mxGeometry relative="1" as="geometry" />
        </mxCell>
        <mxCell id="jwccmyAAvtYH5btv979k-190" value="Pieturas" style="rounded=0;whiteSpace=wrap;html=1;fillColor=#f8cecc;strokeColor=#b85450;" vertex="1" parent="1">
          <mxGeometry x="860" y="350" width="95" height="40" as="geometry" />
        </mxCell>
        <mxCell id="jwccmyAAvtYH5btv979k-274" style="edgeStyle=orthogonalEdgeStyle;rounded=0;orthogonalLoop=1;jettySize=auto;html=1;exitX=0.25;exitY=1;exitDx=0;exitDy=0;entryX=0;entryY=0.5;entryDx=0;entryDy=0;endArrow=none;endFill=0;" edge="1" parent="1" source="jwccmyAAvtYH5btv979k-200" target="jwccmyAAvtYH5btv979k-221">
          <mxGeometry relative="1" as="geometry" />
        </mxCell>
        <mxCell id="jwccmyAAvtYH5btv979k-275" style="edgeStyle=orthogonalEdgeStyle;rounded=0;orthogonalLoop=1;jettySize=auto;html=1;exitX=0.25;exitY=1;exitDx=0;exitDy=0;entryX=0;entryY=0.5;entryDx=0;entryDy=0;endArrow=none;endFill=0;" edge="1" parent="1" source="jwccmyAAvtYH5btv979k-200" target="jwccmyAAvtYH5btv979k-222">
          <mxGeometry relative="1" as="geometry" />
        </mxCell>
        <mxCell id="jwccmyAAvtYH5btv979k-276" style="edgeStyle=orthogonalEdgeStyle;rounded=0;orthogonalLoop=1;jettySize=auto;html=1;exitX=0.25;exitY=1;exitDx=0;exitDy=0;entryX=0;entryY=0.5;entryDx=0;entryDy=0;endArrow=none;endFill=0;" edge="1" parent="1" source="jwccmyAAvtYH5btv979k-200" target="jwccmyAAvtYH5btv979k-223">
          <mxGeometry relative="1" as="geometry" />
        </mxCell>
        <mxCell id="jwccmyAAvtYH5btv979k-200" value="Lietotāja profils" style="rounded=0;whiteSpace=wrap;html=1;fillColor=#f5f5f5;fontColor=#333333;strokeColor=#666666;" vertex="1" parent="1">
          <mxGeometry x="884" y="520" width="95" height="40" as="geometry" />
        </mxCell>
        <mxCell id="jwccmyAAvtYH5btv979k-221" value="lasīt" style="rounded=0;whiteSpace=wrap;html=1;fillColor=#dae8fc;strokeColor=#6c8ebf;" vertex="1" parent="1">
          <mxGeometry x="935" y="580" width="80" height="40" as="geometry" />
        </mxCell>
        <mxCell id="jwccmyAAvtYH5btv979k-222" value="atjaunināt" style="rounded=0;whiteSpace=wrap;html=1;fillColor=#dae8fc;strokeColor=#6c8ebf;" vertex="1" parent="1">
          <mxGeometry x="935" y="630" width="80" height="40" as="geometry" />
        </mxCell>
        <mxCell id="jwccmyAAvtYH5btv979k-223" value="dzēst" style="rounded=0;whiteSpace=wrap;html=1;fillColor=#dae8fc;strokeColor=#6c8ebf;" vertex="1" parent="1">
          <mxGeometry x="935" y="680" width="80" height="40" as="geometry" />
        </mxCell>
        <mxCell id="jwccmyAAvtYH5btv979k-257" style="edgeStyle=orthogonalEdgeStyle;rounded=0;orthogonalLoop=1;jettySize=auto;html=1;exitX=0.5;exitY=1;exitDx=0;exitDy=0;entryX=0.5;entryY=0;entryDx=0;entryDy=0;endArrow=none;endFill=0;" edge="1" parent="1" source="jwccmyAAvtYH5btv979k-244" target="jwccmyAAvtYH5btv979k-66">
          <mxGeometry relative="1" as="geometry" />
        </mxCell>
        <mxCell id="jwccmyAAvtYH5btv979k-258" style="edgeStyle=orthogonalEdgeStyle;rounded=0;orthogonalLoop=1;jettySize=auto;html=1;exitX=0.5;exitY=1;exitDx=0;exitDy=0;entryX=0.5;entryY=0;entryDx=0;entryDy=0;endArrow=none;endFill=0;" edge="1" parent="1" source="jwccmyAAvtYH5btv979k-244" target="jwccmyAAvtYH5btv979k-61">
          <mxGeometry relative="1" as="geometry" />
        </mxCell>
        <mxCell id="jwccmyAAvtYH5btv979k-244" value="Forums" style="rounded=0;whiteSpace=wrap;html=1;fillColor=#f5f5f5;fontColor=#333333;strokeColor=#666666;" vertex="1" parent="1">
          <mxGeometry x="632.5" y="250" width="95" height="40" as="geometry" />
        </mxCell>
        <mxCell id="jwccmyAAvtYH5btv979k-347" style="edgeStyle=orthogonalEdgeStyle;rounded=0;orthogonalLoop=1;jettySize=auto;html=1;exitX=0.25;exitY=1;exitDx=0;exitDy=0;entryX=0;entryY=0.5;entryDx=0;entryDy=0;endArrow=none;endFill=0;" edge="1" parent="1" source="jwccmyAAvtYH5btv979k-305" target="jwccmyAAvtYH5btv979k-311">
          <mxGeometry relative="1" as="geometry" />
        </mxCell>
        <mxCell id="jwccmyAAvtYH5btv979k-305" value="Ziņas" style="rounded=0;whiteSpace=wrap;html=1;fillColor=#f8cecc;strokeColor=#b85450;" vertex="1" parent="1">
          <mxGeometry x="-385" y="350" width="95" height="40" as="geometry" />
        </mxCell>
        <mxCell id="jwccmyAAvtYH5btv979k-346" style="edgeStyle=orthogonalEdgeStyle;rounded=0;orthogonalLoop=1;jettySize=auto;html=1;exitX=0.25;exitY=1;exitDx=0;exitDy=0;entryX=0;entryY=0.5;entryDx=0;entryDy=0;endArrow=none;endFill=0;" edge="1" parent="1" source="jwccmyAAvtYH5btv979k-310" target="jwccmyAAvtYH5btv979k-315">
          <mxGeometry relative="1" as="geometry" />
        </mxCell>
        <mxCell id="jwccmyAAvtYH5btv979k-310" value="Komentāri" style="rounded=0;whiteSpace=wrap;html=1;fillColor=#f8cecc;strokeColor=#b85450;" vertex="1" parent="1">
          <mxGeometry x="-262" y="350" width="95" height="40" as="geometry" />
        </mxCell>
        <mxCell id="jwccmyAAvtYH5btv979k-311" value="lasīt" style="rounded=0;whiteSpace=wrap;html=1;fillColor=#dae8fc;strokeColor=#6c8ebf;" vertex="1" parent="1">
          <mxGeometry x="-339.5" y="430" width="80" height="40" as="geometry" />
        </mxCell>
        <mxCell id="jwccmyAAvtYH5btv979k-315" value="lasīt" style="rounded=0;whiteSpace=wrap;html=1;fillColor=#dae8fc;strokeColor=#6c8ebf;" vertex="1" parent="1">
          <mxGeometry x="-215" y="430" width="80" height="40" as="geometry" />
        </mxCell>
        <mxCell id="jwccmyAAvtYH5btv979k-319" style="edgeStyle=orthogonalEdgeStyle;rounded=0;orthogonalLoop=1;jettySize=auto;html=1;exitX=0.5;exitY=1;exitDx=0;exitDy=0;entryX=0.5;entryY=0;entryDx=0;entryDy=0;endArrow=none;endFill=0;" edge="1" parent="1" source="jwccmyAAvtYH5btv979k-324" target="jwccmyAAvtYH5btv979k-339">
          <mxGeometry relative="1" as="geometry" />
        </mxCell>
        <mxCell id="jwccmyAAvtYH5btv979k-320" style="edgeStyle=orthogonalEdgeStyle;rounded=0;orthogonalLoop=1;jettySize=auto;html=1;exitX=0.5;exitY=1;exitDx=0;exitDy=0;entryX=0.5;entryY=0;entryDx=0;entryDy=0;endArrow=none;endFill=0;" edge="1" parent="1" source="jwccmyAAvtYH5btv979k-324" target="jwccmyAAvtYH5btv979k-336">
          <mxGeometry relative="1" as="geometry" />
        </mxCell>
        <mxCell id="jwccmyAAvtYH5btv979k-321" style="edgeStyle=orthogonalEdgeStyle;rounded=0;orthogonalLoop=1;jettySize=auto;html=1;exitX=0.5;exitY=1;exitDx=0;exitDy=0;endArrow=none;endFill=0;" edge="1" parent="1" source="jwccmyAAvtYH5btv979k-324" target="jwccmyAAvtYH5btv979k-330">
          <mxGeometry relative="1" as="geometry" />
        </mxCell>
        <mxCell id="jwccmyAAvtYH5btv979k-322" style="edgeStyle=orthogonalEdgeStyle;rounded=0;orthogonalLoop=1;jettySize=auto;html=1;exitX=0.5;exitY=1;exitDx=0;exitDy=0;entryX=0.5;entryY=0;entryDx=0;entryDy=0;endArrow=none;endFill=0;" edge="1" parent="1" source="jwccmyAAvtYH5btv979k-324" target="jwccmyAAvtYH5btv979k-326">
          <mxGeometry relative="1" as="geometry" />
        </mxCell>
        <mxCell id="jwccmyAAvtYH5btv979k-323" style="edgeStyle=orthogonalEdgeStyle;rounded=0;orthogonalLoop=1;jettySize=auto;html=1;exitX=0.5;exitY=1;exitDx=0;exitDy=0;endArrow=none;endFill=0;" edge="1" parent="1" source="jwccmyAAvtYH5btv979k-324" target="jwccmyAAvtYH5btv979k-328">
          <mxGeometry relative="1" as="geometry">
            <Array as="points">
              <mxPoint x="152" y="320" />
              <mxPoint x="152" y="320" />
            </Array>
          </mxGeometry>
        </mxCell>
        <mxCell id="jwccmyAAvtYH5btv979k-324" value="Karte" style="rounded=0;whiteSpace=wrap;html=1;fillColor=#f5f5f5;fontColor=#333333;strokeColor=#666666;" vertex="1" parent="1">
          <mxGeometry x="104" y="250" width="95" height="40" as="geometry" />
        </mxCell>
        <mxCell id="jwccmyAAvtYH5btv979k-325" style="edgeStyle=orthogonalEdgeStyle;rounded=0;orthogonalLoop=1;jettySize=auto;html=1;exitX=0.25;exitY=1;exitDx=0;exitDy=0;entryX=0;entryY=0.5;entryDx=0;entryDy=0;endArrow=none;endFill=0;" edge="1" parent="1" source="jwccmyAAvtYH5btv979k-326" target="jwccmyAAvtYH5btv979k-332">
          <mxGeometry relative="1" as="geometry" />
        </mxCell>
        <mxCell id="jwccmyAAvtYH5btv979k-326" value="Saraksts" style="rounded=0;whiteSpace=wrap;html=1;fillColor=#f8cecc;strokeColor=#b85450;" vertex="1" parent="1">
          <mxGeometry x="-15" y="350" width="95" height="40" as="geometry" />
        </mxCell>
        <mxCell id="jwccmyAAvtYH5btv979k-327" style="edgeStyle=orthogonalEdgeStyle;rounded=0;orthogonalLoop=1;jettySize=auto;html=1;exitX=0.25;exitY=1;exitDx=0;exitDy=0;entryX=0;entryY=0.5;entryDx=0;entryDy=0;endArrow=none;endFill=0;" edge="1" parent="1" source="jwccmyAAvtYH5btv979k-328" target="jwccmyAAvtYH5btv979k-333">
          <mxGeometry relative="1" as="geometry" />
        </mxCell>
        <mxCell id="jwccmyAAvtYH5btv979k-328" value="Transports" style="rounded=0;whiteSpace=wrap;html=1;fillColor=#f8cecc;strokeColor=#b85450;" vertex="1" parent="1">
          <mxGeometry x="105" y="350" width="95" height="40" as="geometry" />
        </mxCell>
        <mxCell id="jwccmyAAvtYH5btv979k-329" style="edgeStyle=orthogonalEdgeStyle;rounded=0;orthogonalLoop=1;jettySize=auto;html=1;exitX=0.25;exitY=1;exitDx=0;exitDy=0;entryX=0;entryY=0.5;entryDx=0;entryDy=0;endArrow=none;endFill=0;" edge="1" parent="1" source="jwccmyAAvtYH5btv979k-330" target="jwccmyAAvtYH5btv979k-334">
          <mxGeometry relative="1" as="geometry" />
        </mxCell>
        <mxCell id="jwccmyAAvtYH5btv979k-330" value="ceļojuma informācija" style="rounded=0;whiteSpace=wrap;html=1;fillColor=#f8cecc;strokeColor=#b85450;" vertex="1" parent="1">
          <mxGeometry x="226" y="350" width="95" height="40" as="geometry" />
        </mxCell>
        <mxCell id="jwccmyAAvtYH5btv979k-331" value="lasīt" style="rounded=0;whiteSpace=wrap;html=1;fillColor=#dae8fc;strokeColor=#6c8ebf;" vertex="1" parent="1">
          <mxGeometry x="-85" y="430" width="80" height="40" as="geometry" />
        </mxCell>
        <mxCell id="jwccmyAAvtYH5btv979k-332" value="lasīt" style="rounded=0;whiteSpace=wrap;html=1;fillColor=#dae8fc;strokeColor=#6c8ebf;" vertex="1" parent="1">
          <mxGeometry x="35" y="430" width="80" height="40" as="geometry" />
        </mxCell>
        <mxCell id="jwccmyAAvtYH5btv979k-333" value="lasīt" style="rounded=0;whiteSpace=wrap;html=1;fillColor=#dae8fc;strokeColor=#6c8ebf;" vertex="1" parent="1">
          <mxGeometry x="156" y="430" width="80" height="40" as="geometry" />
        </mxCell>
        <mxCell id="jwccmyAAvtYH5btv979k-334" value="lasīt" style="rounded=0;whiteSpace=wrap;html=1;fillColor=#dae8fc;strokeColor=#6c8ebf;" vertex="1" parent="1">
          <mxGeometry x="271" y="430" width="80" height="40" as="geometry" />
        </mxCell>
        <mxCell id="jwccmyAAvtYH5btv979k-335" style="edgeStyle=orthogonalEdgeStyle;rounded=0;orthogonalLoop=1;jettySize=auto;html=1;exitX=0.25;exitY=1;exitDx=0;exitDy=0;entryX=0;entryY=0.5;entryDx=0;entryDy=0;endArrow=none;endFill=0;" edge="1" parent="1" source="jwccmyAAvtYH5btv979k-336" target="jwccmyAAvtYH5btv979k-337">
          <mxGeometry relative="1" as="geometry" />
        </mxCell>
        <mxCell id="jwccmyAAvtYH5btv979k-336" value="Kalendārs" style="rounded=0;whiteSpace=wrap;html=1;fillColor=#f8cecc;strokeColor=#b85450;" vertex="1" parent="1">
          <mxGeometry x="343" y="350" width="95" height="40" as="geometry" />
        </mxCell>
        <mxCell id="jwccmyAAvtYH5btv979k-337" value="lasīt" style="rounded=0;whiteSpace=wrap;html=1;fillColor=#dae8fc;strokeColor=#6c8ebf;" vertex="1" parent="1">
          <mxGeometry x="387.5" y="430" width="80" height="40" as="geometry" />
        </mxCell>
        <mxCell id="jwccmyAAvtYH5btv979k-338" style="edgeStyle=orthogonalEdgeStyle;rounded=0;orthogonalLoop=1;jettySize=auto;html=1;exitX=0.25;exitY=1;exitDx=0;exitDy=0;entryX=0;entryY=0.5;entryDx=0;entryDy=0;endArrow=none;endFill=0;" edge="1" parent="1" source="jwccmyAAvtYH5btv979k-339" target="jwccmyAAvtYH5btv979k-331">
          <mxGeometry relative="1" as="geometry" />
        </mxCell>
        <mxCell id="jwccmyAAvtYH5btv979k-339" value="Pieturas" style="rounded=0;whiteSpace=wrap;html=1;fillColor=#f8cecc;strokeColor=#b85450;" vertex="1" parent="1">
          <mxGeometry x="-135" y="350" width="95" height="40" as="geometry" />
        </mxCell>
        <mxCell id="jwccmyAAvtYH5btv979k-340" style="edgeStyle=orthogonalEdgeStyle;rounded=0;orthogonalLoop=1;jettySize=auto;html=1;exitX=0.5;exitY=1;exitDx=0;exitDy=0;entryX=0.5;entryY=0;entryDx=0;entryDy=0;endArrow=none;endFill=0;" edge="1" parent="1" source="jwccmyAAvtYH5btv979k-342" target="jwccmyAAvtYH5btv979k-310">
          <mxGeometry relative="1" as="geometry" />
        </mxCell>
        <mxCell id="jwccmyAAvtYH5btv979k-341" style="edgeStyle=orthogonalEdgeStyle;rounded=0;orthogonalLoop=1;jettySize=auto;html=1;exitX=0.5;exitY=1;exitDx=0;exitDy=0;entryX=0.5;entryY=0;entryDx=0;entryDy=0;endArrow=none;endFill=0;" edge="1" parent="1" source="jwccmyAAvtYH5btv979k-342" target="jwccmyAAvtYH5btv979k-305">
          <mxGeometry relative="1" as="geometry" />
        </mxCell>
        <mxCell id="jwccmyAAvtYH5btv979k-342" value="Forums" style="rounded=0;whiteSpace=wrap;html=1;fillColor=#f5f5f5;fontColor=#333333;strokeColor=#666666;" vertex="1" parent="1">
          <mxGeometry x="-320" y="250" width="95" height="40" as="geometry" />
        </mxCell>
        <mxCell id="jwccmyAAvtYH5btv979k-355" style="edgeStyle=orthogonalEdgeStyle;rounded=0;orthogonalLoop=1;jettySize=auto;html=1;exitX=0.25;exitY=1;exitDx=0;exitDy=0;entryX=0;entryY=0.5;entryDx=0;entryDy=0;endArrow=none;endFill=0;" edge="1" parent="1" source="jwccmyAAvtYH5btv979k-359" target="jwccmyAAvtYH5btv979k-364">
          <mxGeometry relative="1" as="geometry" />
        </mxCell>
        <mxCell id="jwccmyAAvtYH5btv979k-356" style="edgeStyle=orthogonalEdgeStyle;rounded=0;orthogonalLoop=1;jettySize=auto;html=1;exitX=0.25;exitY=1;exitDx=0;exitDy=0;entryX=0;entryY=0.5;entryDx=0;entryDy=0;endArrow=none;endFill=0;" edge="1" parent="1" source="jwccmyAAvtYH5btv979k-359" target="jwccmyAAvtYH5btv979k-365">
          <mxGeometry relative="1" as="geometry" />
        </mxCell>
        <mxCell id="jwccmyAAvtYH5btv979k-357" style="edgeStyle=orthogonalEdgeStyle;rounded=0;orthogonalLoop=1;jettySize=auto;html=1;exitX=0.25;exitY=1;exitDx=0;exitDy=0;entryX=0;entryY=0.5;entryDx=0;entryDy=0;endArrow=none;endFill=0;" edge="1" parent="1" source="jwccmyAAvtYH5btv979k-359" target="jwccmyAAvtYH5btv979k-366">
          <mxGeometry relative="1" as="geometry" />
        </mxCell>
        <mxCell id="jwccmyAAvtYH5btv979k-358" style="edgeStyle=orthogonalEdgeStyle;rounded=0;orthogonalLoop=1;jettySize=auto;html=1;exitX=0.25;exitY=1;exitDx=0;exitDy=0;entryX=0;entryY=0.5;entryDx=0;entryDy=0;endArrow=none;endFill=0;" edge="1" parent="1" source="jwccmyAAvtYH5btv979k-359" target="jwccmyAAvtYH5btv979k-367">
          <mxGeometry relative="1" as="geometry" />
        </mxCell>
        <mxCell id="jwccmyAAvtYH5btv979k-359" value="Komentāri" style="rounded=0;whiteSpace=wrap;html=1;fillColor=#f8cecc;strokeColor=#b85450;" vertex="1" parent="1">
          <mxGeometry x="-78" y="710" width="95" height="40" as="geometry" />
        </mxCell>
        <mxCell id="jwccmyAAvtYH5btv979k-360" value="lasīt" style="rounded=0;whiteSpace=wrap;html=1;fillColor=#dae8fc;strokeColor=#6c8ebf;" vertex="1" parent="1">
          <mxGeometry x="-180" y="770" width="80" height="40" as="geometry" />
        </mxCell>
        <mxCell id="jwccmyAAvtYH5btv979k-361" value="izveidot" style="rounded=0;whiteSpace=wrap;html=1;fillColor=#dae8fc;strokeColor=#6c8ebf;" vertex="1" parent="1">
          <mxGeometry x="-180" y="820" width="80" height="40" as="geometry" />
        </mxCell>
        <mxCell id="jwccmyAAvtYH5btv979k-362" value="dzēst" style="rounded=0;whiteSpace=wrap;html=1;fillColor=#dae8fc;strokeColor=#6c8ebf;" vertex="1" parent="1">
          <mxGeometry x="-180" y="870" width="80" height="40" as="geometry" />
        </mxCell>
        <mxCell id="jwccmyAAvtYH5btv979k-363" value="atjaunināt" style="rounded=0;whiteSpace=wrap;html=1;fillColor=#dae8fc;strokeColor=#6c8ebf;" vertex="1" parent="1">
          <mxGeometry x="-180" y="920" width="80" height="40" as="geometry" />
        </mxCell>
        <mxCell id="jwccmyAAvtYH5btv979k-364" value="lasīt" style="rounded=0;whiteSpace=wrap;html=1;fillColor=#dae8fc;strokeColor=#6c8ebf;" vertex="1" parent="1">
          <mxGeometry x="-30" y="770" width="80" height="40" as="geometry" />
        </mxCell>
        <mxCell id="jwccmyAAvtYH5btv979k-365" value="izveidot" style="rounded=0;whiteSpace=wrap;html=1;fillColor=#dae8fc;strokeColor=#6c8ebf;" vertex="1" parent="1">
          <mxGeometry x="-30" y="820" width="80" height="40" as="geometry" />
        </mxCell>
        <mxCell id="jwccmyAAvtYH5btv979k-366" value="dzēst" style="rounded=0;whiteSpace=wrap;html=1;fillColor=#dae8fc;strokeColor=#6c8ebf;" vertex="1" parent="1">
          <mxGeometry x="-30" y="870" width="80" height="40" as="geometry" />
        </mxCell>
        <mxCell id="jwccmyAAvtYH5btv979k-367" value="atjaunināt" style="rounded=0;whiteSpace=wrap;html=1;fillColor=#dae8fc;strokeColor=#6c8ebf;" vertex="1" parent="1">
          <mxGeometry x="-30" y="920" width="80" height="40" as="geometry" />
        </mxCell>
        <mxCell id="jwccmyAAvtYH5btv979k-374" style="edgeStyle=orthogonalEdgeStyle;rounded=0;orthogonalLoop=1;jettySize=auto;html=1;exitX=0.25;exitY=1;exitDx=0;exitDy=0;entryX=0;entryY=0.5;entryDx=0;entryDy=0;endArrow=none;endFill=0;" edge="1" parent="1" source="jwccmyAAvtYH5btv979k-375" target="jwccmyAAvtYH5btv979k-381">
          <mxGeometry relative="1" as="geometry" />
        </mxCell>
        <mxCell id="jwccmyAAvtYH5btv979k-375" value="Saraksts" style="rounded=0;whiteSpace=wrap;html=1;fillColor=#f8cecc;strokeColor=#b85450;" vertex="1" parent="1">
          <mxGeometry x="356" y="710" width="95" height="40" as="geometry" />
        </mxCell>
        <mxCell id="jwccmyAAvtYH5btv979k-376" style="edgeStyle=orthogonalEdgeStyle;rounded=0;orthogonalLoop=1;jettySize=auto;html=1;exitX=0.25;exitY=1;exitDx=0;exitDy=0;entryX=0;entryY=0.5;entryDx=0;entryDy=0;endArrow=none;endFill=0;" edge="1" parent="1" source="jwccmyAAvtYH5btv979k-377" target="jwccmyAAvtYH5btv979k-382">
          <mxGeometry relative="1" as="geometry" />
        </mxCell>
        <mxCell id="jwccmyAAvtYH5btv979k-377" value="Transports" style="rounded=0;whiteSpace=wrap;html=1;fillColor=#f8cecc;strokeColor=#b85450;" vertex="1" parent="1">
          <mxGeometry x="476" y="710" width="95" height="40" as="geometry" />
        </mxCell>
        <mxCell id="jwccmyAAvtYH5btv979k-378" style="edgeStyle=orthogonalEdgeStyle;rounded=0;orthogonalLoop=1;jettySize=auto;html=1;exitX=0.25;exitY=1;exitDx=0;exitDy=0;entryX=0;entryY=0.5;entryDx=0;entryDy=0;endArrow=none;endFill=0;" edge="1" parent="1" source="jwccmyAAvtYH5btv979k-379" target="jwccmyAAvtYH5btv979k-383">
          <mxGeometry relative="1" as="geometry" />
        </mxCell>
        <mxCell id="jwccmyAAvtYH5btv979k-379" value="ceļojuma informācija" style="rounded=0;whiteSpace=wrap;html=1;fillColor=#f8cecc;strokeColor=#b85450;" vertex="1" parent="1">
          <mxGeometry x="597" y="710" width="95" height="40" as="geometry" />
        </mxCell>
        <mxCell id="jwccmyAAvtYH5btv979k-380" value="lasīt" style="rounded=0;whiteSpace=wrap;html=1;fillColor=#dae8fc;strokeColor=#6c8ebf;" vertex="1" parent="1">
          <mxGeometry x="286" y="770" width="82" height="40" as="geometry" />
        </mxCell>
        <mxCell id="jwccmyAAvtYH5btv979k-381" value="lasīt" style="rounded=0;whiteSpace=wrap;html=1;fillColor=#dae8fc;strokeColor=#6c8ebf;" vertex="1" parent="1">
          <mxGeometry x="406" y="770" width="80" height="40" as="geometry" />
        </mxCell>
        <mxCell id="jwccmyAAvtYH5btv979k-382" value="lasīt" style="rounded=0;whiteSpace=wrap;html=1;fillColor=#dae8fc;strokeColor=#6c8ebf;" vertex="1" parent="1">
          <mxGeometry x="527" y="770" width="80" height="40" as="geometry" />
        </mxCell>
        <mxCell id="jwccmyAAvtYH5btv979k-383" value="lasīt" style="rounded=0;whiteSpace=wrap;html=1;fillColor=#dae8fc;strokeColor=#6c8ebf;" vertex="1" parent="1">
          <mxGeometry x="642" y="770" width="80" height="40" as="geometry" />
        </mxCell>
        <mxCell id="jwccmyAAvtYH5btv979k-384" style="edgeStyle=orthogonalEdgeStyle;rounded=0;orthogonalLoop=1;jettySize=auto;html=1;exitX=0.25;exitY=1;exitDx=0;exitDy=0;entryX=0;entryY=0.5;entryDx=0;entryDy=0;endArrow=none;endFill=0;" edge="1" parent="1" source="jwccmyAAvtYH5btv979k-385" target="jwccmyAAvtYH5btv979k-386">
          <mxGeometry relative="1" as="geometry" />
        </mxCell>
        <mxCell id="jwccmyAAvtYH5btv979k-385" value="Kalendārs" style="rounded=0;whiteSpace=wrap;html=1;fillColor=#f8cecc;strokeColor=#b85450;" vertex="1" parent="1">
          <mxGeometry x="714" y="710" width="95" height="40" as="geometry" />
        </mxCell>
        <mxCell id="jwccmyAAvtYH5btv979k-386" value="lasīt" style="rounded=0;whiteSpace=wrap;html=1;fillColor=#dae8fc;strokeColor=#6c8ebf;" vertex="1" parent="1">
          <mxGeometry x="766" y="770" width="80" height="40" as="geometry" />
        </mxCell>
        <mxCell id="jwccmyAAvtYH5btv979k-387" style="edgeStyle=orthogonalEdgeStyle;rounded=0;orthogonalLoop=1;jettySize=auto;html=1;exitX=0.25;exitY=1;exitDx=0;exitDy=0;entryX=0;entryY=0.5;entryDx=0;entryDy=0;endArrow=none;endFill=0;" edge="1" parent="1" source="jwccmyAAvtYH5btv979k-388" target="jwccmyAAvtYH5btv979k-380">
          <mxGeometry relative="1" as="geometry" />
        </mxCell>
        <mxCell id="jwccmyAAvtYH5btv979k-388" value="Pieturas" style="rounded=0;whiteSpace=wrap;html=1;fillColor=#f8cecc;strokeColor=#b85450;" vertex="1" parent="1">
          <mxGeometry x="236" y="710" width="95" height="40" as="geometry" />
        </mxCell>
        <mxCell id="jwccmyAAvtYH5btv979k-393" value="lasīt" style="rounded=0;whiteSpace=wrap;html=1;fillColor=#dae8fc;strokeColor=#6c8ebf;" vertex="1" parent="1">
          <mxGeometry x="138" y="770" width="80" height="40" as="geometry" />
        </mxCell>
        <mxCell id="jwccmyAAvtYH5btv979k-394" value="atjaunināt" style="rounded=0;whiteSpace=wrap;html=1;fillColor=#dae8fc;strokeColor=#6c8ebf;" vertex="1" parent="1">
          <mxGeometry x="138" y="820" width="80" height="40" as="geometry" />
        </mxCell>
        <mxCell id="jwccmyAAvtYH5btv979k-395" value="dzēst" style="rounded=0;whiteSpace=wrap;html=1;fillColor=#dae8fc;strokeColor=#6c8ebf;" vertex="1" parent="1">
          <mxGeometry x="138" y="870" width="80" height="40" as="geometry" />
        </mxCell>
        <mxCell id="jwccmyAAvtYH5btv979k-401" style="edgeStyle=orthogonalEdgeStyle;rounded=0;orthogonalLoop=1;jettySize=auto;html=1;exitX=0.25;exitY=1;exitDx=0;exitDy=0;entryX=0;entryY=0.5;entryDx=0;entryDy=0;endArrow=none;endFill=0;" edge="1" parent="1" source="jwccmyAAvtYH5btv979k-399" target="jwccmyAAvtYH5btv979k-360">
          <mxGeometry relative="1" as="geometry" />
        </mxCell>
        <mxCell id="jwccmyAAvtYH5btv979k-402" style="edgeStyle=orthogonalEdgeStyle;rounded=0;orthogonalLoop=1;jettySize=auto;html=1;exitX=0.25;exitY=1;exitDx=0;exitDy=0;entryX=0;entryY=0.5;entryDx=0;entryDy=0;endArrow=none;endFill=0;" edge="1" parent="1" source="jwccmyAAvtYH5btv979k-399" target="jwccmyAAvtYH5btv979k-361">
          <mxGeometry relative="1" as="geometry" />
        </mxCell>
        <mxCell id="jwccmyAAvtYH5btv979k-403" style="edgeStyle=orthogonalEdgeStyle;rounded=0;orthogonalLoop=1;jettySize=auto;html=1;exitX=0.25;exitY=1;exitDx=0;exitDy=0;entryX=0;entryY=0.5;entryDx=0;entryDy=0;endArrow=none;endFill=0;" edge="1" parent="1" source="jwccmyAAvtYH5btv979k-399" target="jwccmyAAvtYH5btv979k-362">
          <mxGeometry relative="1" as="geometry" />
        </mxCell>
        <mxCell id="jwccmyAAvtYH5btv979k-404" style="edgeStyle=orthogonalEdgeStyle;rounded=0;orthogonalLoop=1;jettySize=auto;html=1;exitX=0.25;exitY=1;exitDx=0;exitDy=0;entryX=0;entryY=0.5;entryDx=0;entryDy=0;endArrow=none;endFill=0;" edge="1" parent="1" source="jwccmyAAvtYH5btv979k-399" target="jwccmyAAvtYH5btv979k-363">
          <mxGeometry relative="1" as="geometry" />
        </mxCell>
        <mxCell id="jwccmyAAvtYH5btv979k-399" value="Ziņas" style="rounded=0;whiteSpace=wrap;html=1;fillColor=#f8cecc;strokeColor=#b85450;" vertex="1" parent="1">
          <mxGeometry x="-224" y="710" width="95" height="40" as="geometry" />
        </mxCell>
        <mxCell id="jwccmyAAvtYH5btv979k-423" style="edgeStyle=orthogonalEdgeStyle;rounded=0;orthogonalLoop=1;jettySize=auto;html=1;exitX=0.5;exitY=1;exitDx=0;exitDy=0;endArrow=none;endFill=0;" edge="1" parent="1" source="jwccmyAAvtYH5btv979k-413" target="jwccmyAAvtYH5btv979k-422">
          <mxGeometry relative="1" as="geometry" />
        </mxCell>
        <mxCell id="jwccmyAAvtYH5btv979k-425" style="edgeStyle=orthogonalEdgeStyle;rounded=0;orthogonalLoop=1;jettySize=auto;html=1;exitX=0.5;exitY=1;exitDx=0;exitDy=0;entryX=0.5;entryY=0;entryDx=0;entryDy=0;endArrow=none;endFill=0;" edge="1" parent="1" source="jwccmyAAvtYH5btv979k-413" target="jwccmyAAvtYH5btv979k-399">
          <mxGeometry relative="1" as="geometry" />
        </mxCell>
        <mxCell id="jwccmyAAvtYH5btv979k-431" style="edgeStyle=orthogonalEdgeStyle;rounded=0;orthogonalLoop=1;jettySize=auto;html=1;exitX=0.5;exitY=1;exitDx=0;exitDy=0;entryX=0.5;entryY=0;entryDx=0;entryDy=0;endArrow=none;endFill=0;" edge="1" parent="1" source="jwccmyAAvtYH5btv979k-413" target="jwccmyAAvtYH5btv979k-359">
          <mxGeometry relative="1" as="geometry" />
        </mxCell>
        <mxCell id="jwccmyAAvtYH5btv979k-413" value="Administratora panelis" style="rounded=0;whiteSpace=wrap;html=1;fillColor=#f5f5f5;fontColor=#333333;strokeColor=#666666;" vertex="1" parent="1">
          <mxGeometry x="-78" y="630" width="95" height="40" as="geometry" />
        </mxCell>
        <mxCell id="jwccmyAAvtYH5btv979k-416" style="edgeStyle=orthogonalEdgeStyle;rounded=0;orthogonalLoop=1;jettySize=auto;html=1;exitX=0.5;exitY=1;exitDx=0;exitDy=0;endArrow=none;endFill=0;" edge="1" parent="1" source="jwccmyAAvtYH5btv979k-414" target="jwccmyAAvtYH5btv979k-377">
          <mxGeometry relative="1" as="geometry" />
        </mxCell>
        <mxCell id="jwccmyAAvtYH5btv979k-417" style="edgeStyle=orthogonalEdgeStyle;rounded=0;orthogonalLoop=1;jettySize=auto;html=1;exitX=0.5;exitY=1;exitDx=0;exitDy=0;entryX=0.5;entryY=0;entryDx=0;entryDy=0;endArrow=none;endFill=0;" edge="1" parent="1" source="jwccmyAAvtYH5btv979k-414" target="jwccmyAAvtYH5btv979k-379">
          <mxGeometry relative="1" as="geometry" />
        </mxCell>
        <mxCell id="jwccmyAAvtYH5btv979k-418" style="edgeStyle=orthogonalEdgeStyle;rounded=0;orthogonalLoop=1;jettySize=auto;html=1;exitX=0.5;exitY=1;exitDx=0;exitDy=0;entryX=0.5;entryY=0;entryDx=0;entryDy=0;endArrow=none;endFill=0;" edge="1" parent="1" source="jwccmyAAvtYH5btv979k-414" target="jwccmyAAvtYH5btv979k-385">
          <mxGeometry relative="1" as="geometry" />
        </mxCell>
        <mxCell id="jwccmyAAvtYH5btv979k-419" style="edgeStyle=orthogonalEdgeStyle;rounded=0;orthogonalLoop=1;jettySize=auto;html=1;exitX=0.5;exitY=1;exitDx=0;exitDy=0;endArrow=none;endFill=0;" edge="1" parent="1" source="jwccmyAAvtYH5btv979k-414" target="jwccmyAAvtYH5btv979k-375">
          <mxGeometry relative="1" as="geometry" />
        </mxCell>
        <mxCell id="jwccmyAAvtYH5btv979k-420" style="edgeStyle=orthogonalEdgeStyle;rounded=0;orthogonalLoop=1;jettySize=auto;html=1;exitX=0.5;exitY=1;exitDx=0;exitDy=0;endArrow=none;endFill=0;" edge="1" parent="1" source="jwccmyAAvtYH5btv979k-414" target="jwccmyAAvtYH5btv979k-388">
          <mxGeometry relative="1" as="geometry" />
        </mxCell>
        <mxCell id="jwccmyAAvtYH5btv979k-414" value="Karte" style="rounded=0;whiteSpace=wrap;html=1;fillColor=#f5f5f5;fontColor=#333333;strokeColor=#666666;" vertex="1" parent="1">
          <mxGeometry x="476" y="630" width="95" height="40" as="geometry" />
        </mxCell>
        <mxCell id="jwccmyAAvtYH5btv979k-421" value="verificēt" style="rounded=0;whiteSpace=wrap;html=1;fillColor=#dae8fc;strokeColor=#6c8ebf;" vertex="1" parent="1">
          <mxGeometry x="138" y="920" width="80" height="40" as="geometry" />
        </mxCell>
        <mxCell id="jwccmyAAvtYH5btv979k-426" style="edgeStyle=orthogonalEdgeStyle;rounded=0;orthogonalLoop=1;jettySize=auto;html=1;exitX=0.25;exitY=1;exitDx=0;exitDy=0;entryX=0;entryY=0.5;entryDx=0;entryDy=0;endArrow=none;endFill=0;" edge="1" parent="1" source="jwccmyAAvtYH5btv979k-422" target="jwccmyAAvtYH5btv979k-393">
          <mxGeometry relative="1" as="geometry" />
        </mxCell>
        <mxCell id="jwccmyAAvtYH5btv979k-427" style="edgeStyle=orthogonalEdgeStyle;rounded=0;orthogonalLoop=1;jettySize=auto;html=1;exitX=0.25;exitY=1;exitDx=0;exitDy=0;entryX=0;entryY=0.5;entryDx=0;entryDy=0;endArrow=none;endFill=0;" edge="1" parent="1" source="jwccmyAAvtYH5btv979k-422" target="jwccmyAAvtYH5btv979k-394">
          <mxGeometry relative="1" as="geometry" />
        </mxCell>
        <mxCell id="jwccmyAAvtYH5btv979k-429" style="edgeStyle=orthogonalEdgeStyle;rounded=0;orthogonalLoop=1;jettySize=auto;html=1;exitX=0.25;exitY=1;exitDx=0;exitDy=0;entryX=0;entryY=0.5;entryDx=0;entryDy=0;endArrow=none;endFill=0;" edge="1" parent="1" source="jwccmyAAvtYH5btv979k-422" target="jwccmyAAvtYH5btv979k-395">
          <mxGeometry relative="1" as="geometry" />
        </mxCell>
        <mxCell id="jwccmyAAvtYH5btv979k-430" style="edgeStyle=orthogonalEdgeStyle;rounded=0;orthogonalLoop=1;jettySize=auto;html=1;exitX=0.25;exitY=1;exitDx=0;exitDy=0;entryX=0;entryY=0.5;entryDx=0;entryDy=0;endArrow=none;endFill=0;" edge="1" parent="1" source="jwccmyAAvtYH5btv979k-422" target="jwccmyAAvtYH5btv979k-421">
          <mxGeometry relative="1" as="geometry" />
        </mxCell>
        <mxCell id="jwccmyAAvtYH5btv979k-422" value="Lietotājs" style="rounded=0;whiteSpace=wrap;html=1;fillColor=#f8cecc;strokeColor=#b85450;" vertex="1" parent="1">
          <mxGeometry x="90" y="710" width="95" height="40" as="geometry" />
        </mxCell>
      </root>
    </mxGraphModel>
  </diagram>
</mxfile>
